PathFileType	4	(X/Y/Z)	/Users/visionmauri/4_2_1_f_1_Sports2D/4_2_1_f_1_Sports2D_px_person00.trc
DataRate	CameraRate	NumFrames	NumMarkers	Units	OrigDataRate	OrigDataStartFrame	OrigNumFrames
30.0	30.0	10	22	m	30.0	334	382
Frame#	Time	Hip			RHip			RKnee			RAnkle			RBigToe			RSmallToe			RHeel			LHip			LKnee			LAnkle			LBigToe			LSmallToe			LHeel			Neck			Head			Nose			RShoulder			RElbow			RWrist			LShoulder			LElbow			LWrist			
		X1	Y1	Z1	X2	Y2	Z2	X3	Y3	Z3	X4	Y4	Z4	X5	Y5	Z5	X6	Y6	Z6	X7	Y7	Z7	X8	Y8	Z8	X9	Y9	Z9	X10	Y10	Z10	X11	Y11	Z11	X12	Y12	Z12	X13	Y13	Z13	X14	Y14	Z14	X15	Y15	Z15	X16	Y16	Z16	X17	Y17	Z17	X18	Y18	Z18	X19	Y19	Z19	X20	Y20	Z20	X21	Y21	Z21	X22	Y22	Z22
334	11.162554680664915	630.3512646595019	895.0620250766409	0.0	557.3655127474741	900.4994223492822	0.0	507.89666598229724	1160.3331416649876	0.0	463.1412774461538	1446.2169768336137	0.0	431.0704353165442	1556.928842158356	0.0	396.1503780795521	1539.0162026254206	0.0	495.1091699988596	1501.5619500891685	0.0	706.2296006616734	919.1213563144457	0.0	691.014489712003	1195.366507730726	0.0	675.7884365426049	1467.6290796643307	0.0	698.057240102928	1577.6297200875024	0.0	741.9399600142947	1567.7968045152625	0.0	651.8126795174736	1507.8444432652573	0.0	672.0607674521714	480.67198677347125	0.0	656.9461035334679	322.0616199471517	0.0	635.4848392659637	462.54521428287245	0.0	544.7919534290662	523.9978782315945	0.0	442.0803553386925	707.3075288542962	0.0	321.2914593814358	853.9989800203118	0.0	808.3743766795094	527.8558108066684	0.0	852.963585554227	735.1959484978687	0.0	839.5092265646703	877.0780624327474	0.0
335	11.195975503062115	630.1472405637853	895.1572709685219	0.0	557.0654567133931	899.2886090849086	0.0	507.2147196721877	1159.0198495370944	0.0	459.7236707968069	1447.9391145671252	0.0	427.07282738497764	1558.4188937745869	0.0	393.2672427814962	1539.6534841482876	0.0	495.318604827607	1503.940629109848	0.0	706.4001213307878	917.4817169022837	0.0	691.1169581334761	1196.27683349553	0.0	675.8370174387404	1468.0523168016375	0.0	698.6891024846074	1579.6302190955273	0.0	741.858535530753	1568.5651053528288	0.0	651.6780938829584	1506.9176567919046	0.0	671.6511508870733	481.0807049606257	0.0	656.9582458691996	321.11433092475266	0.0	633.7312821134575	461.86439153253406	0.0	542.9713380762895	523.5370320813532	0.0	440.3367434442596	707.0902348563412	0.0	320.94119565369397	853.8705441256764	0.0	806.7348619338939	527.0289438026477	0.0	853.1070665181176	733.1959836533853	0.0	840.2152844326155	880.6827174707803	0.0
336	11.229396325459316	630.0386949991426	894.9578520885873	0.0	556.9397906029393	897.834376297679	0.0	506.9574888233153	1156.7578948791975	0.0	458.731675912275	1450.3493152829817	0.0	425.02337014949006	1560.3540236559543	0.0	390.5452695311108	1540.3347869082593	0.0	496.3870028185862	1504.9713521897795	0.0	706.5545130000686	915.959595005681	0.0	691.2669473646147	1196.9082987543147	0.0	675.9802482735005	1468.4310451169401	0.0	699.7551188709896	1580.6615409873978	0.0	742.7168868349102	1568.5630546025811	0.0	650.5555808755664	1507.876249512659	0.0	670.5778726462186	481.2503348338856	0.0	656.3181911687052	321.0213835421057	0.0	633.5413888468584	461.55450093963486	0.0	541.4576458354869	523.4159835908525	0.0	438.55464679719756	706.7545032353592	0.0	320.9817976709121	853.967089304262	0.0	806.1605447205258	525.8020796805296	0.0	852.9819241434822	731.188307301576	0.0	841.8376134681157	883.1703084858773	0.0
337	11.262817147856516	629.7464289876899	894.1313841232213	0.0	556.7901935609386	898.0956691710046	0.0	506.9184957937989	1152.7238320472377	0.0	460.08828055048673	1455.3208763631283	0.0	424.44345495253935	1563.6923829575444	0.0	388.72575393125203	1540.4786035802913	0.0	497.9560379481062	1508.8698904730036	0.0	706.5824188031081	916.0225355704196	0.0	691.3984221511315	1198.0101776618867	0.0	675.8566549788102	1469.7550437591347	0.0	700.252405210853	1579.5907633290108	0.0	743.4160565074745	1568.0409704719505	0.0	649.4243912510972	1510.8680967390574	0.0	669.396902610401	481.3978431484127	0.0	654.4900758109695	321.3616482711708	0.0	632.7206564657338	461.8509867953276	0.0	540.2502515576465	523.5915612583372	0.0	438.00050971925873	706.5968999090949	0.0	320.22190010251035	854.4869207935742	0.0	806.2713239810778	524.8192786106948	0.0	853.0429281686017	730.8032094839291	0.0	843.884036367701	882.9922604875458	0.0
338	11.296237970253717	628.9087113784473	894.3308474521266	0.0	555.7636035814444	899.9472796003871	0.0	505.91330852398914	1149.5810172250858	0.0	460.99315524844326	1460.9321550354523	0.0	423.8128691851427	1566.2133771603237	0.0	387.7649318299172	1541.50043186939	0.0	497.2318318781037	1514.1469643392843	0.0	706.0371161329693	917.6755406864243	0.0	691.6659092823314	1199.0667274313591	0.0	675.1513211228722	1471.4715789109678	0.0	700.491581960266	1577.7966938565066	0.0	743.4396342438047	1567.9801067951807	0.0	649.2260124965114	1513.7653197928935	0.0	669.0503417901737	481.6362845480856	0.0	652.5122376225463	321.55470424468376	0.0	630.2983610010751	462.374548620637	0.0	539.5334463339768	523.6388035256381	0.0	437.78765729882224	706.5274020619914	0.0	318.41290968108325	855.240447414173	0.0	805.8910968520208	524.9449895255544	0.0	853.0820129229955	731.9591563414647	0.0	844.9793367818711	881.538544550463	0.0
339	11.329658792650918	627.7624685248945	897.0119655531561	0.0	553.4039125775607	902.5068429338521	0.0	502.819722358515	1152.603243796662	0.0	459.2505733059293	1464.5903371447523	0.0	422.1559694900773	1567.2742940318744	0.0	387.2346872130117	1546.006665128518	0.0	491.9184920218605	1517.5279057487996	0.0	704.8093889971739	919.6902618429631	0.0	692.125782261735	1199.7174955187877	0.0	674.1830693177105	1472.287376136174	0.0	701.1504579606485	1577.4336213816837	0.0	742.9701899372657	1568.3946681238372	0.0	649.7011880853225	1514.9359862685142	0.0	668.9425311122912	481.5537984086967	0.0	651.1959624138372	321.61804867457096	0.0	627.8604546850469	462.3307499993846	0.0	538.8528117594789	523.3971482070706	0.0	436.61435227183404	706.7134032091182	0.0	316.48742910507946	856.3564729722054	0.0	804.6549827168874	525.6466922413115	0.0	852.7939588279302	733.5386582204951	0.0	844.9617011382823	880.5412719079671	0.0
340	11.363079615048118	627.1041320503751	900.1381508640579	0.0	550.934732630305	904.9833797860994	0.0	498.72565342188506	1161.557425049338	0.0	456.27156986361337	1466.0466748783667	0.0	420.17693719583525	1569.1015413551868	0.0	387.20826960395175	1551.9455198916476	0.0	485.2355456542771	1519.166145869726	0.0	703.0938388924778	920.85508935212	0.0	692.4865669822273	1199.7347397650071	0.0	673.5621466950195	1472.1436362775678	0.0	701.929779976699	1578.5909746011882	0.0	742.4812318927416	1568.4252137935437	0.0	650.1027508845266	1514.7267508688433	0.0	667.1739289687736	481.0056142704766	0.0	650.1503847256527	321.3893689590399	0.0	626.4223983652947	461.3739317518793	0.0	536.6649093663208	523.3628528493017	0.0	434.29905159473697	708.4072944527537	0.0	314.57830749216254	857.6829342609973	0.0	802.7687750218347	525.744316202598	0.0	851.7162678562663	734.6235197052528	0.0	844.9805845043563	880.3270378264801	0.0
341	11.396500437445317	626.9314017179643	900.4798103367335	0.0	549.6467954995475	906.3719215312951	0.0	496.12723165459806	1170.1395151898337	0.0	454.06503356787556	1466.9256918167807	0.0	418.50311302531117	1572.8572229754361	0.0	386.97370900945145	1555.6060450688447	0.0	481.942173514556	1521.4855780272287	0.0	701.1412990836104	921.0409159137562	0.0	692.6004965463427	1198.9614191931057	0.0	673.4258623167888	1471.8776068592808	0.0	702.4752479609781	1579.5779262504327	0.0	742.6052548285985	1568.0170563808858	0.0	650.2085571121399	1514.2090205275933	0.0	663.4711071293858	480.4656322533584	0.0	648.8773809282786	320.4784344694143	0.0	624.9814306356488	459.7168634867245	0.0	532.8037524185505	523.7699752997778	0.0	431.3809410800587	711.3422091406494	0.0	312.3826434853719	858.2580634604882	0.0	800.3562451991635	524.9495610520732	0.0	849.4808137055592	734.408324220905	0.0	845.3682196209755	880.3587139668113	0.0
342	11.429921259842518	625.9484135974627	898.9270386045852	0.0	548.7570003709495	906.6629193371084	0.0	495.98615692899693	1174.6055269758554	0.0	452.883192935105	1469.0879026672158	0.0	417.6838242451417	1577.4872507153277	0.0	385.39168664695086	1558.3772881979962	0.0	482.0661663252348	1525.6974432985317	0.0	699.3439364640337	920.8726991897398	0.0	692.6949585588178	1198.4761423642524	0.0	673.5079525020914	1472.0737471472817	0.0	702.8459174005948	1579.773224114408	0.0	743.6461229646401	1568.117380810946	0.0	650.288353131806	1514.2536590127793	0.0	659.4139054593087	480.47497546620684	0.0	647.3140051534491	319.3461645056609	0.0	623.2584283993175	458.09923862656444	0.0	529.1054988404254	524.3609326590067	0.0	428.60049692672754	712.7614697945593	0.0	310.99806245168134	857.7716819961548	0.0	797.6634294052334	523.7079372658208	0.0	846.5307977978744	732.9354438028234	0.0	845.0524631892591	880.3331428373771	0.0
343	11.463342082239718	623.2534592624294	899.4971889712723	0.0	547.0651390192949	907.9790696561391	0.0	497.50145916962475	1177.8239948924202	0.0	452.9010203116131	1472.9547563962994	0.0	418.88296089306107	1582.6596712149096	0.0	383.2068651673885	1563.618449208422	0.0	483.05436187934976	1530.4949627833444	0.0	697.8496421974994	921.3814479377146	0.0	692.7242740381811	1199.1959941767175	0.0	673.6226617190754	1472.4008031177225	0.0	702.9673162309164	1579.7360153641685	0.0	744.8245818289755	1568.9411435705877	0.0	650.4561627007205	1515.0489002026231	0.0	655.3418086641025	481.1110929593925	0.0	645.4604796506151	318.80815090812877	0.0	622.2272366374991	457.8920581708513	0.0	525.8178983801964	525.4923326879871	0.0	425.97381508597005	712.2717274887096	0.0	310.9825605800259	857.8006079113878	0.0	794.376488494235	522.6373049805993	0.0	843.5921413316867	731.8292213632141	0.0	843.301813373256	880.0249756249656	0.0
